<?xml version="1.0" encoding="UTF-8" standalone="no" ?>
<!DOCTYPE svg PUBLIC "-//W3C//DTD SVG 1.1//EN" "http://www.w3.org/Graphics/SVG/1.1/DTD/svg11.dtd">
<svg xmlns="http://www.w3.org/2000/svg" xmlns:xlink="http://www.w3.org/1999/xlink" version="1.1" width="50" height="50" viewBox="0 0 50 50" xml:space="preserve">
<desc>Created with Fabric.js 4.6.0</desc>
<defs>
</defs>
<g transform="matrix(0.05 0 0 0.05 25 25)" id="baxf0jJ7zY5MQxeaiC3Vf"  >
<g style="" vector-effect="non-scaling-stroke"   >
		<g transform="matrix(0.18 0 0 -0.18 0 0.05)" id="PqWjNuvli8CkMCQ7LwTmR"  >
<path style="stroke: rgb(0,243,180); stroke-width: 1; stroke-dasharray: none; stroke-linecap: butt; stroke-dashoffset: 0; stroke-linejoin: miter; stroke-miterlimit: 4; fill: rgb(0,243,180); fill-rule: nonzero; opacity: 1;" vector-effect="non-scaling-stroke"  transform=" translate(-2560, -2559.68)" d="M 406 5104 C 272 5072 127 4958 62 4834 C -4 4708 0 4858 0 2560 C 0 262 -4 412 62 286 C 103 208 208 103 286 62 C 412 -4 262 0 2560 0 C 4858 0 4708 -4 4834 62 C 4912 103 5017 208 5058 286 C 5124 412 5120 262 5120 2560 C 5120 4858 5124 4708 5058 4834 C 5017 4912 4912 5017 4834 5058 C 4708 5124 4859 5120 2555 5119 C 786 5118 456 5116 406 5104 z M 2450 3790 L 2450 2670 L 1330 2670 L 210 2670 L 210 3638 C 210 4665 210 4673 257 4748 C 303 4822 382 4879 467 4899 C 488 4904 943 4908 1478 4909 L 2450 4910 L 2450 3790 z M 4663 4895 C 4784 4864 4863 4784 4895 4663 C 4908 4614 4910 4464 4910 3638 L 4910 2670 L 3790 2670 L 2670 2670 L 2670 3790 L 2670 4910 L 3638 4910 C 4462 4910 4614 4908 4663 4895 z M 2450 1330 L 2450 210 L 1458 212 L 465 215 L 405 243 C 338 275 299 307 264 363 C 209 447 210 434 210 1482 L 210 2450 L 1330 2450 L 2450 2450 L 2450 1330 z M 4908 1458 L 4905 465 L 4877 405 C 4845 338 4813 299 4757 264 C 4673 209 4686 210 3638 210 L 2670 210 L 2670 1330 L 2670 2450 L 3790 2450 L 4910 2450 L 4908 1458 z" stroke-linecap="round" />
</g>
		<g transform="matrix(0.18 0 0 -0.18 -234.19 -214.86)" id="KMPHqZBFVYlyXZN3TjHbS"  >
<path style="stroke: rgb(0,243,180); stroke-width: 1; stroke-dasharray: none; stroke-linecap: butt; stroke-dashoffset: 0; stroke-linejoin: miter; stroke-miterlimit: 4; fill: rgb(0,243,180); fill-rule: nonzero; opacity: 1;" vector-effect="non-scaling-stroke"  transform=" translate(-1279.86, -3734.5)" d="M 1233 4254 C 1179 4227 1170 4193 1170 4006 L 1170 3840 L 1000 3840 C 816 3840 788 3834 764 3789 C 740 3742 746 3692 779 3659 L 808 3630 L 989 3630 L 1170 3630 L 1170 3465 C 1170 3344 1174 3290 1184 3265 C 1199 3230 1243 3200 1280 3200 C 1317 3200 1361 3230 1376 3265 C 1386 3290 1390 3344 1390 3465 L 1390 3630 L 1571 3630 L 1752 3630 L 1781 3659 C 1813 3691 1819 3738 1798 3785 C 1776 3833 1747 3840 1560 3840 L 1390 3840 L 1390 4006 C 1390 4194 1381 4228 1325 4254 C 1284 4274 1273 4274 1233 4254 z" stroke-linecap="round" />
</g>
		<g transform="matrix(0.18 0 0 -0.18 234.12 -214.99)" id="9CdgkVjBARAO7Wz-rwQsh"  >
<path style="stroke: rgb(0,243,180); stroke-width: 1; stroke-dasharray: none; stroke-linecap: butt; stroke-dashoffset: 0; stroke-linejoin: miter; stroke-miterlimit: 4; fill: rgb(0,243,180); fill-rule: nonzero; opacity: 1;" vector-effect="non-scaling-stroke"  transform=" translate(-3839.77, -3735.27)" d="M 3361 3826 C 3303 3794 3292 3707 3339 3659 L 3368 3630 L 3840 3630 L 4312 3630 L 4341 3659 C 4389 3708 4375 3801 4315 3828 C 4276 3846 3394 3844 3361 3826 z" stroke-linecap="round" />
</g>
		<g transform="matrix(0.18 0 0 -0.18 -234.16 233.9)" id="cq3vfWhzaS0EgTHSxDF9H"  >
<path style="stroke: rgb(0,243,180); stroke-width: 1; stroke-dasharray: none; stroke-linecap: butt; stroke-dashoffset: 0; stroke-linejoin: miter; stroke-miterlimit: 4; fill: rgb(0,243,180); fill-rule: nonzero; opacity: 1;" vector-effect="non-scaling-stroke"  transform=" translate(-1280, -1281.39)" d="M 925 1701 C 885 1683 855 1641 855 1599 C 855 1562 863 1553 995 1420 L 1135 1280 L 995 1140 C 862 1007 855 998 855 960 C 855 903 903 855 960 855 C 998 855 1007 862 1140 995 L 1280 1135 L 1420 995 C 1553 862 1562 855 1600 855 C 1657 855 1705 903 1705 960 C 1705 998 1698 1007 1565 1140 L 1425 1280 L 1565 1420 C 1698 1553 1705 1562 1705 1600 C 1705 1657 1657 1705 1600 1705 C 1562 1705 1553 1698 1420 1565 L 1280 1425 L 1143 1562 C 1002 1703 973 1721 925 1701 z" stroke-linecap="round" />
</g>
		<g transform="matrix(0.18 0 0 -0.18 234.23 175.69)" id="_1qq4qPpoUsNC1aA52PMU"  >
<path style="stroke: rgb(0,243,180); stroke-width: 1; stroke-dasharray: none; stroke-linecap: butt; stroke-dashoffset: 0; stroke-linejoin: miter; stroke-miterlimit: 4; fill: rgb(0,243,180); fill-rule: nonzero; opacity: 1;" vector-effect="non-scaling-stroke"  transform=" translate(-3840.4, -1599.6)" d="M 3383 1703 C 3324 1692 3289 1594 3326 1541 C 3361 1492 3378 1490 3840 1490 C 4302 1490 4319 1492 4354 1541 C 4363 1554 4370 1580 4370 1600 C 4370 1620 4363 1646 4354 1659 C 4319 1709 4303 1710 3838 1709 C 3600 1708 3395 1705 3383 1703 z" stroke-linecap="round" />
</g>
		<g transform="matrix(0.18 0 0 -0.18 234.23 292.77)" id="joStFY1kYuL_8MwSbR6mq"  >
<path style="stroke: rgb(0,243,180); stroke-width: 1; stroke-dasharray: none; stroke-linecap: butt; stroke-dashoffset: 0; stroke-linejoin: miter; stroke-miterlimit: 4; fill: rgb(0,243,180); fill-rule: nonzero; opacity: 1;" vector-effect="non-scaling-stroke"  transform=" translate(-3840.4, -959.6)" d="M 3383 1063 C 3324 1052 3289 954 3326 901 C 3361 852 3378 850 3840 850 C 4302 850 4319 852 4354 901 C 4363 914 4370 940 4370 960 C 4370 980 4363 1006 4354 1019 C 4319 1069 4303 1070 3838 1069 C 3600 1068 3395 1065 3383 1063 z" stroke-linecap="round" />
</g>
</g>
</g>
</svg>