<?xml version="1.0" encoding="UTF-8" standalone="no" ?>
<!DOCTYPE svg PUBLIC "-//W3C//DTD SVG 1.1//EN" "http://www.w3.org/Graphics/SVG/1.1/DTD/svg11.dtd">
<svg xmlns="http://www.w3.org/2000/svg" xmlns:xlink="http://www.w3.org/1999/xlink" version="1.1" width="50" height="50" viewBox="0 0 50 50" xml:space="preserve">
<desc>Created with Fabric.js 4.6.0</desc>
<defs>
</defs>
<g transform="matrix(1 0 0 1 24.97 25)" id="oPboDLjjWCwrSdP6rQvpf"  >
<path style="stroke: none; stroke-width: 1; stroke-dasharray: none; stroke-linecap: butt; stroke-dashoffset: 0; stroke-linejoin: miter; stroke-miterlimit: 4; fill: rgb(255,255,255); fill-rule: nonzero; opacity: 1;" vector-effect="non-scaling-stroke"  transform=" translate(-24.5, -24.5)" d="M 22.29373 48.90138 C 17.75701 48.489740000000005 13.4596 46.80534 9.56417 43.886030000000005 C 8.39649 43.01511000000001 5.974910000000001 40.59366000000001 5.104000000000001 39.42586000000001 C 2.586770000000001 36.06638000000001 1.045910000000001 32.56347000000001 0.3758500000000007 28.706250000000008 C -0.8109399999999993 21.901300000000006 0.8257000000000008 15.287660000000008 5.104000000000001 9.564160000000008 C 5.974920000000001 8.396480000000007 8.39638 5.974910000000008 9.56417 5.1039900000000085 C 15.28767 0.8257000000000083 21.90132 -0.8109299999999919 28.70627 0.37584000000000817 C 32.5635 1.0457800000000081 36.06641 2.5867600000000084 39.42589 5.1039900000000085 C 40.59357 5.974910000000008 43.015150000000006 8.396360000000008 43.88606 9.564160000000008 C 48.16436 15.287660000000008 49.80099 21.901300000000006 48.61421 28.706250000000008 C 47.94427 32.56347000000001 46.40329 36.066390000000006 43.88606 39.42586000000001 C 43.01514 40.593540000000004 40.59368 43.01511000000001 39.42589 43.886030000000005 C 34.30534 47.72415000000001 28.40963 49.446760000000005 22.293730000000004 48.90138 z M 26.45714 46.03008 C 32.037099999999995 45.513239999999996 37.42563 42.70881 40.97655 38.46884 C 47.81984 30.30479 47.81984 18.68547 40.97655 10.52129 C 37.425630000000005 6.2813300000000005 32.037090000000006 3.4769000000000005 26.457140000000003 2.9600500000000007 C 20.73364 2.433650000000001 15.010140000000003 4.2521700000000004 10.521310000000003 8.01361 C 5.754820000000003 12.0047 2.864410000000003 18.22594 2.864410000000003 24.49494 C 2.864410000000003 30.96492 5.927140000000003 37.3297 10.971040000000002 41.34957 C 15.364220000000003 44.8526 20.934510000000003 46.53712 26.45702 46.02983 z" stroke-linecap="round" />
</g>
</svg>