<?xml version="1.0" encoding="UTF-8" standalone="no" ?>
<!DOCTYPE svg PUBLIC "-//W3C//DTD SVG 1.1//EN" "http://www.w3.org/Graphics/SVG/1.1/DTD/svg11.dtd">
<svg xmlns="http://www.w3.org/2000/svg" xmlns:xlink="http://www.w3.org/1999/xlink" version="1.1" width="50" height="50" viewBox="0 0 50 50" xml:space="preserve">
<desc>Created with Fabric.js 4.6.0</desc>
<defs>
</defs>
<g transform="matrix(-0.05 0 0 0.05 25 25)" id="FFDHPLtkuQsmTzwKBv660"  >
<g style="" vector-effect="non-scaling-stroke"   >
		<g transform="matrix(0.19 0 0 -0.19 0 0.01)" id="vr9nNFjLYWnrNOd_HwQFT"  >
<path style="stroke: rgb(0,243,180); stroke-width: 1; stroke-dasharray: none; stroke-linecap: butt; stroke-dashoffset: 0; stroke-linejoin: miter; stroke-miterlimit: 4; fill: rgb(0,243,180); fill-rule: nonzero; opacity: 1;" vector-effect="non-scaling-stroke"  transform=" translate(-2560, -2559.95)" d="M 2450 4916 C 2381 4897 2322 4863 2268 4812 C 2092 4648 2085 4381 2251 4205 C 2278 4176 2316 4145 2335 4134 L 2370 4115 L 2370 3978 L 2370 3841 L 1908 3838 C 1459 3835 1444 3834 1399 3814 C 1300 3768 1239 3687 1218 3570 L 1206 3510 L 1070 3510 C 950 3510 931 3508 917 3492 C 902 3475 900 3425 900 2972 L 900 2471 L 926 2451 C 950 2432 966 2430 1081 2430 L 1209 2430 L 1215 2383 C 1230 2279 1293 2190 1384 2142 L 1435 2115 L 1723 2112 L 2010 2109 L 2010 2005 L 2010 1901 L 1578 1898 L 1145 1895 L 1082 1866 C 1015 1835 965 1787 928 1718 L 905 1675 L 902 953 C 900 239 900 230 920 210 C 940 190 947 190 2560 190 C 4173 190 4180 190 4200 210 C 4220 230 4220 239 4218 953 L 4215 1675 L 4192 1718 C 4139 1817 4062 1873 3953 1890 C 3921 1896 3718 1900 3503 1900 L 3110 1900 L 3110 2004 L 3110 2109 L 3398 2112 L 3685 2115 L 3736 2142 C 3828 2191 3885 2274 3906 2393 L 3912 2430 L 4040 2430 C 4154 2430 4170 2432 4194 2451 L 4220 2471 L 4220 2974 C 4220 3449 4219 3478 4202 3493 C 4187 3507 4160 3510 4048 3510 L 3914 3510 L 3902 3570 C 3881 3683 3825 3761 3732 3807 L 3675 3835 L 3213 3838 L 2750 3841 L 2750 3978 L 2750 4115 L 2785 4134 C 2804 4145 2843 4177 2871 4207 C 3027 4372 3027 4628 2871 4793 C 2762 4908 2596 4956 2450 4916 z M 2651 4774 C 2725 4752 2812 4665 2834 4589 C 2868 4475 2845 4384 2761 4299 C 2676 4214 2585 4192 2470 4226 C 2395 4248 2308 4335 2286 4410 C 2258 4505 2269 4582 2322 4660 C 2362 4719 2402 4750 2464 4772 C 2528 4794 2581 4794 2651 4774 z M 2610 3955 L 2610 3840 L 2560 3840 L 2510 3840 L 2510 3955 L 2510 4070 L 2560 4070 L 2610 4070 L 2610 3955 z M 3663 3686 C 3705 3669 3746 3620 3760 3572 C 3774 3522 3774 2428 3760 2378 C 3746 2330 3705 2281 3663 2264 C 3636 2252 3442 2250 2561 2250 C 1828 2250 1482 2253 1463 2261 C 1423 2276 1390 2309 1369 2355 C 1352 2392 1350 2432 1350 2965 C 1350 3327 1354 3549 1360 3572 C 1373 3619 1415 3669 1455 3686 C 1500 3706 3616 3706 3663 3686 z M 1210 2970 L 1210 2570 L 1125 2570 L 1040 2570 L 1040 2970 L 1040 3370 L 1125 3370 L 1210 3370 L 1210 2970 z M 4080 2970 L 4080 2570 L 3995 2570 L 3910 2570 L 3910 2970 L 3910 3370 L 3995 3370 L 4080 3370 L 4080 2970 z M 2970 2005 L 2970 1900 L 2560 1900 L 2150 1900 L 2150 2005 L 2150 2110 L 2560 2110 L 2970 2110 L 2970 2005 z M 3944 1750 C 3989 1740 4025 1716 4054 1676 C 4075 1649 4075 1637 4078 989 L 4080 330 L 3805 330 L 3530 330 L 3530 665 L 3530 1001 L 3505 1025 L 3481 1050 L 2560 1050 L 1639 1050 L 1615 1025 L 1590 1001 L 1590 665 L 1590 330 L 1315 330 L 1040 330 L 1042 989 C 1045 1637 1045 1649 1066 1676 C 1094 1715 1132 1741 1171 1750 C 1219 1761 3896 1762 3944 1750 z M 3390 620 L 3390 330 L 2560 330 L 1730 330 L 1730 620 L 1730 910 L 2560 910 L 3390 910 L 3390 620 z" stroke-linecap="round" />
</g>
		<g transform="matrix(0.19 0 0 -0.19 -126.39 -109.64)" id="ULsO8_-kjg2Ly1T7oZsvG"  >
<path style="stroke: rgb(0,243,180); stroke-width: 1; stroke-dasharray: none; stroke-linecap: butt; stroke-dashoffset: 0; stroke-linejoin: miter; stroke-miterlimit: 4; fill: rgb(0,243,180); fill-rule: nonzero; opacity: 1;" vector-effect="non-scaling-stroke"  transform=" translate(-1899.65, -3132.81)" d="M 1797 3426 C 1622 3361 1543 3163 1625 2995 C 1734 2770 2066 2773 2177 2998 C 2215 3076 2217 3191 2181 3264 C 2151 3324 2095 3382 2038 3411 C 1984 3439 1854 3447 1797 3426 z M 2003 3267 C 2129 3171 2058 2965 1899 2967 C 1779 2969 1701 3082 1744 3194 C 1773 3270 1827 3303 1912 3297 C 1954 3295 1977 3287 2003 3267 z" stroke-linecap="round" />
</g>
		<g transform="matrix(0.19 0 0 -0.19 126.26 -109.64)" id="Ysqihn-As9130y28HbWY-"  >
<path style="stroke: rgb(0,243,180); stroke-width: 1; stroke-dasharray: none; stroke-linecap: butt; stroke-dashoffset: 0; stroke-linejoin: miter; stroke-miterlimit: 4; fill: rgb(0,243,180); fill-rule: nonzero; opacity: 1;" vector-effect="non-scaling-stroke"  transform=" translate(-3219.65, -3132.81)" d="M 3117 3426 C 2942 3361 2863 3163 2945 2995 C 3054 2770 3386 2773 3497 2998 C 3535 3076 3537 3191 3501 3264 C 3471 3324 3415 3382 3358 3411 C 3304 3439 3174 3447 3117 3426 z M 3319 3270 C 3358 3243 3390 3180 3390 3130 C 3390 3089 3356 3025 3319 2998 C 3251 2948 3159 2957 3098 3021 C 3022 3101 3042 3229 3140 3282 C 3188 3308 3274 3303 3319 3270 z" stroke-linecap="round" />
</g>
		<g transform="matrix(0.19 0 0 -0.19 0.02 7.18)" id="L8odhowSfj-lSWs7aItTP"  >
<path style="stroke: rgb(0,243,180); stroke-width: 1; stroke-dasharray: none; stroke-linecap: butt; stroke-dashoffset: 0; stroke-linejoin: miter; stroke-miterlimit: 4; fill: rgb(0,243,180); fill-rule: nonzero; opacity: 1;" vector-effect="non-scaling-stroke"  transform=" translate(-2560.1, -2522.5)" d="M 2097 2572 C 2073 2546 2076 2497 2101 2474 C 2121 2456 2143 2455 2560 2455 C 2977 2455 2999 2456 3019 2474 C 3045 2498 3047 2551 3022 2573 C 3005 2588 2958 2590 2558 2590 C 2140 2590 2112 2589 2097 2572 z" stroke-linecap="round" />
</g>
		<g transform="matrix(0.19 0 0 -0.19 -235.79 209.23)" id="Je9KUAx87bP85P_JfrbgZ"  >
<path style="stroke: rgb(0,243,180); stroke-width: 1; stroke-dasharray: none; stroke-linecap: butt; stroke-dashoffset: 0; stroke-linejoin: miter; stroke-miterlimit: 4; fill: rgb(0,243,180); fill-rule: nonzero; opacity: 1;" vector-effect="non-scaling-stroke"  transform=" translate(-1328.09, -1466.91)" d="M 1286 1648 C 1131 1615 1089 1411 1216 1313 C 1245 1292 1266 1285 1315 1282 C 1396 1277 1450 1304 1488 1369 C 1572 1512 1448 1682 1286 1648 z M 1371 1489 C 1388 1456 1368 1420 1332 1420 C 1299 1420 1280 1436 1280 1465 C 1280 1494 1299 1510 1332 1510 C 1350 1510 1363 1503 1371 1489 z" stroke-linecap="round" />
</g>
		<g transform="matrix(0.19 0 0 -0.19 235.41 209.68)" id="5Ybjl1kICs3progL5vjUy"  >
<path style="stroke: rgb(0,243,180); stroke-width: 1; stroke-dasharray: none; stroke-linecap: butt; stroke-dashoffset: 0; stroke-linejoin: miter; stroke-miterlimit: 4; fill: rgb(0,243,180); fill-rule: nonzero; opacity: 1;" vector-effect="non-scaling-stroke"  transform=" translate(-3789.88, -1464.51)" d="M 3693 1625 C 3646 1597 3600 1517 3600 1465 C 3600 1411 3647 1333 3696 1304 C 3734 1281 3750 1278 3804 1282 C 3854 1285 3875 1292 3904 1313 C 4005 1390 4005 1540 3904 1617 C 3874 1639 3855 1645 3801 1648 C 3744 1650 3729 1647 3693 1625 z M 3828 1498 C 3835 1491 3840 1477 3840 1465 C 3840 1436 3821 1420 3788 1420 C 3752 1420 3732 1456 3749 1489 C 3762 1512 3808 1518 3828 1498 z" stroke-linecap="round" />
</g>
</g>
</g>
</svg>