<?xml version="1.0" encoding="UTF-8" standalone="no" ?>
<!DOCTYPE svg PUBLIC "-//W3C//DTD SVG 1.1//EN" "http://www.w3.org/Graphics/SVG/1.1/DTD/svg11.dtd">
<svg xmlns="http://www.w3.org/2000/svg" xmlns:xlink="http://www.w3.org/1999/xlink" version="1.1" width="50" height="50" viewBox="0 0 50 50" xml:space="preserve">
<desc>Created with Fabric.js 4.6.0</desc>
<defs>
</defs>
<g transform="matrix(1 0 0 -1 25 24.99)" id="hujPD4KMdlgXIYdYsxN4G"  >
<path style="stroke: none; stroke-width: 1; stroke-dasharray: none; stroke-linecap: butt; stroke-dashoffset: 0; stroke-linejoin: miter; stroke-miterlimit: 4; fill: rgb(255,255,255); fill-rule: nonzero; opacity: 1;" vector-effect="non-scaling-stroke"  transform=" translate(-25, -24.99)" d="M 6.3427 49.86603 C 3.0476599999999996 49.20112 0.6033799999999996 46.64927 0.09492000000000012 43.36392 C 0.006950000000000109 42.81638 -0.012649999999999884 37.98638 0.006950000000000109 24.5423 C 0.036240000000000105 4.782060000000001 -0.002849999999999891 6.36599 0.5740800000000001 4.82105 C 1.2193900000000002 3.0904599999999993 3.12594 1.1839099999999996 4.856730000000001 0.5383999999999993 C 6.391780000000001 -0.038420000000000676 4.87633 0.0005599999999993388 25.01784 0.0005599999999993388 C 45.159459999999996 0.0005599999999993388 43.64391 -0.03853000000000066 45.17895 0.5383999999999993 C 46.91934 1.1837099999999994 48.81619 3.0805599999999993 49.461600000000004 4.82105 C 50.03842 6.3561 49.99944000000001 4.840649999999999 49.99944000000001 24.98228 C 49.99944000000001 41.88745 49.98964000000001 43.46159 49.833180000000006 43.99944 C 49.54966 45.03584 49.26605000000001 45.68105 48.78698000000001 46.41444 C 47.67230000000001 48.11564 46.23512000000001 49.14225 44.083960000000005 49.79745 C 43.595110000000005 49.95391 42.050250000000005 49.963609999999996 25.262340000000005 49.9833 C 10.449550000000006 49.993 6.861210000000007 49.9736 6.342950000000005 49.86593 z M 43.90775 45.69094 C 44.79749 45.250969999999995 45.34513 44.68383 45.77521 43.77449 L 46.08813 43.11948 L 46.08813 24.982260000000004 L 46.08813 6.8450400000000045 L 45.77521 6.190030000000005 C 45.34494 5.280790000000005 44.7974 4.713560000000005 43.90775 4.273580000000004 L 43.16457 3.9117800000000043 L 25.02735 3.9117800000000043 L 6.880339999999997 3.9117800000000043 L 6.225229999999997 4.224690000000004 C 5.3159899999999976 4.654970000000004 4.748759999999997 5.202500000000004 4.308779999999997 6.092150000000004 L 3.946979999999997 6.8353300000000035 L 3.946979999999997 24.972550000000002 L 3.946979999999997 43.119460000000004 L 4.2598999999999965 43.77447 C 4.426159999999997 44.13627 4.748749999999997 44.62522 4.963989999999996 44.85975 C 5.3942599999999965 45.32901 6.2838999999999965 45.847359999999995 6.890239999999997 45.993919999999996 C 7.115179999999997 46.042809999999996 14.604789999999998 46.072089999999996 25.223 46.072089999999996 L 43.164680000000004 46.05249 z" stroke-linecap="round" />
</g>
</svg>