<?xml version="1.0" encoding="UTF-8" standalone="no" ?>
<!DOCTYPE svg PUBLIC "-//W3C//DTD SVG 1.1//EN" "http://www.w3.org/Graphics/SVG/1.1/DTD/svg11.dtd">
<svg xmlns="http://www.w3.org/2000/svg" xmlns:xlink="http://www.w3.org/1999/xlink" version="1.1" width="50" height="50" viewBox="0 0 50 50" xml:space="preserve">
<desc>Created with Fabric.js 4.6.0</desc>
<defs>
</defs>
<g transform="matrix(0.52 0.86 -0.86 0.52 20.2 33.26)" id="eA9bx17Zsn6zJDJesBjNm"  >
<path style="stroke: none; stroke-width: 1; stroke-dasharray: none; stroke-linecap: butt; stroke-dashoffset: 0; stroke-linejoin: miter; stroke-miterlimit: 4; fill: rgb(255,255,255); fill-rule: nonzero; opacity: 1;" vector-effect="non-scaling-stroke"  transform=" translate(-25, -21.46)" d="M 24.27433 42.87505 C 23.50253 42.76765 22.62323 42.31825 22.04693 41.76135 C 21.79293 41.50735 21.28503 40.81375 20.91373 40.21775 C 20.190830000000002 39.045550000000006 0.994130000000002 7.187750000000001 0.5545299999999997 6.425750000000001 C -0.9401700000000002 3.846650000000001 0.7402299999999997 0.5250500000000011 3.7588299999999997 0.09525000000000095 C 4.68703 -0.03174999999999906 45.32713 -0.03174999999999906 46.255129999999994 0.09525000000000095 C 48.521629999999995 0.41765000000000096 50.16282999999999 2.410550000000001 49.98703 4.637950000000001 C 49.95773 5.018950000000001 49.860029999999995 5.517150000000001 49.77213 5.751650000000001 C 49.52793 6.455050000000001 28.641229999999997 40.97965 28.113629999999997 41.56585 C 27.19533 42.581849999999996 25.739729999999998 43.08005 24.274329999999996 42.87495 z M 25.70063 39.77825 C 25.83743 39.70005 26.08163 39.43645 26.24773 39.18245 C 26.76563 38.39105 46.694829999999996 5.370950000000001 46.89023 4.980250000000005 C 46.99763 4.765350000000005 47.08563 4.482050000000005 47.08563 4.345250000000005 C 47.08563 3.9545500000000056 46.72423 3.3391500000000054 46.372330000000005 3.1534500000000056 C 46.07923 2.9873500000000055 44.96553000000001 2.9777500000000057 25.006930000000004 2.9777500000000057 C 4.130030000000005 2.9777500000000057 3.954130000000003 2.9777500000000057 3.6317300000000046 3.1731500000000055 C 3.2703300000000044 3.3880500000000056 2.9283300000000043 3.9547500000000055 2.9283300000000043 4.345350000000005 C 2.9283300000000043 4.482150000000005 3.016230000000004 4.775150000000005 3.1335300000000044 4.990150000000005 C 3.4853300000000043 5.693550000000005 23.649030000000003 39.114250000000006 23.932330000000004 39.46595000000001 C 24.362230000000004 40.01305000000001 25.075330000000005 40.139950000000006 25.700530000000004 39.77845000000001 z" stroke-linecap="round" />
</g>
</svg>